<mxfile host="65bd71144e">
    <diagram id="l2bq6xQOaoNBHGaJq-4E" name="Page-1">
        <mxGraphModel dx="2465" dy="705" grid="1" gridSize="10" guides="1" tooltips="1" connect="1" arrows="1" fold="1" page="1" pageScale="1" pageWidth="850" pageHeight="1100" math="0" shadow="0">
            <root>
                <mxCell id="0"/>
                <mxCell id="1" parent="0"/>
                <mxCell id="2" value="&lt;font style=&quot;font-size: 24px;&quot;&gt;2&lt;/font&gt;" style="ellipse;whiteSpace=wrap;html=1;aspect=fixed;" vertex="1" parent="1">
                    <mxGeometry x="330" y="245" width="80" height="80" as="geometry"/>
                </mxCell>
                <mxCell id="4" value="&lt;font style=&quot;font-size: 24px;&quot;&gt;0&lt;/font&gt;" style="ellipse;whiteSpace=wrap;html=1;aspect=fixed;" vertex="1" parent="1">
                    <mxGeometry x="10" y="250" width="80" height="80" as="geometry"/>
                </mxCell>
                <mxCell id="5" value="&lt;font style=&quot;font-size: 24px;&quot;&gt;1&lt;/font&gt;" style="ellipse;whiteSpace=wrap;html=1;aspect=fixed;" vertex="1" parent="1">
                    <mxGeometry x="170" y="250" width="80" height="80" as="geometry"/>
                </mxCell>
                <mxCell id="6" value="&lt;font style=&quot;font-size: 24px;&quot;&gt;3&lt;/font&gt;" style="ellipse;whiteSpace=wrap;html=1;aspect=fixed;" vertex="1" parent="1">
                    <mxGeometry x="490" y="250" width="80" height="80" as="geometry"/>
                </mxCell>
                <mxCell id="7" value="4" style="ellipse;whiteSpace=wrap;html=1;aspect=fixed;" vertex="1" parent="1">
                    <mxGeometry x="650" y="250" width="80" height="80" as="geometry"/>
                </mxCell>
                <mxCell id="8" value="" style="endArrow=classic;html=1;fontSize=24;exitX=1;exitY=0.5;exitDx=0;exitDy=0;entryX=0;entryY=0.5;entryDx=0;entryDy=0;" edge="1" parent="1" source="4" target="5">
                    <mxGeometry width="50" height="50" relative="1" as="geometry">
                        <mxPoint x="390" y="320" as="sourcePoint"/>
                        <mxPoint x="440" y="270" as="targetPoint"/>
                    </mxGeometry>
                </mxCell>
                <mxCell id="9" value="" style="endArrow=classic;html=1;fontSize=24;exitX=1;exitY=0.5;exitDx=0;exitDy=0;entryX=0;entryY=0.5;entryDx=0;entryDy=0;" edge="1" parent="1">
                    <mxGeometry width="50" height="50" relative="1" as="geometry">
                        <mxPoint x="250" y="289.47" as="sourcePoint"/>
                        <mxPoint x="329.9999999999968" y="289.47" as="targetPoint"/>
                    </mxGeometry>
                </mxCell>
                <mxCell id="10" value="" style="endArrow=classic;html=1;fontSize=24;exitX=1;exitY=0.5;exitDx=0;exitDy=0;entryX=0;entryY=0.5;entryDx=0;entryDy=0;" edge="1" parent="1">
                    <mxGeometry width="50" height="50" relative="1" as="geometry">
                        <mxPoint x="410" y="289.47" as="sourcePoint"/>
                        <mxPoint x="489.9999999999968" y="289.47" as="targetPoint"/>
                    </mxGeometry>
                </mxCell>
                <mxCell id="11" value="" style="endArrow=classic;html=1;fontSize=24;exitX=1;exitY=0.5;exitDx=0;exitDy=0;entryX=0;entryY=0.5;entryDx=0;entryDy=0;" edge="1" parent="1">
                    <mxGeometry width="50" height="50" relative="1" as="geometry">
                        <mxPoint x="570" y="289.47" as="sourcePoint"/>
                        <mxPoint x="649.9999999999968" y="289.47" as="targetPoint"/>
                    </mxGeometry>
                </mxCell>
                <mxCell id="12" value="" style="endArrow=classic;html=1;fontSize=24;entryX=0.5;entryY=0;entryDx=0;entryDy=0;" edge="1" parent="1" target="6">
                    <mxGeometry width="50" height="50" relative="1" as="geometry">
                        <mxPoint x="210" y="250" as="sourcePoint"/>
                        <mxPoint x="260" y="200" as="targetPoint"/>
                        <Array as="points">
                            <mxPoint x="270" y="180"/>
                            <mxPoint x="370" y="160"/>
                            <mxPoint x="470" y="180"/>
                        </Array>
                    </mxGeometry>
                </mxCell>
                <mxCell id="13" value="" style="endArrow=classic;html=1;fontSize=24;entryX=0.5;entryY=1;entryDx=0;entryDy=0;exitX=0.5;exitY=1;exitDx=0;exitDy=0;" edge="1" parent="1" source="4" target="2">
                    <mxGeometry width="50" height="50" relative="1" as="geometry">
                        <mxPoint x="80" y="380" as="sourcePoint"/>
                        <mxPoint x="400" y="380" as="targetPoint"/>
                        <Array as="points">
                            <mxPoint x="130" y="410"/>
                            <mxPoint x="240" y="420"/>
                        </Array>
                    </mxGeometry>
                </mxCell>
                <mxCell id="14" value="50" style="edgeLabel;html=1;align=center;verticalAlign=middle;resizable=0;points=[];fontSize=24;" vertex="1" connectable="0" parent="13">
                    <mxGeometry x="-0.2862" y="-5" relative="1" as="geometry">
                        <mxPoint y="13" as="offset"/>
                    </mxGeometry>
                </mxCell>
                <mxCell id="15" value="" style="endArrow=classic;html=1;fontSize=24;exitX=0.5;exitY=1;exitDx=0;exitDy=0;" edge="1" parent="1">
                    <mxGeometry width="50" height="50" relative="1" as="geometry">
                        <mxPoint x="370" y="325" as="sourcePoint"/>
                        <mxPoint x="670" y="325" as="targetPoint"/>
                        <Array as="points">
                            <mxPoint x="450" y="405"/>
                            <mxPoint x="560" y="415"/>
                        </Array>
                    </mxGeometry>
                </mxCell>
                <mxCell id="16" value="50" style="edgeLabel;html=1;align=center;verticalAlign=middle;resizable=0;points=[];fontSize=24;" vertex="1" connectable="0" parent="15">
                    <mxGeometry x="-0.0178" y="-2" relative="1" as="geometry">
                        <mxPoint y="17" as="offset"/>
                    </mxGeometry>
                </mxCell>
                <mxCell id="25" value="" style="edgeStyle=none;html=1;exitX=0.5;exitY=1;exitDx=0;exitDy=0;entryX=1;entryY=1;entryDx=0;entryDy=0;" edge="1" parent="1" source="7" target="7">
                    <mxGeometry relative="1" as="geometry">
                        <mxPoint x="740" y="410" as="targetPoint"/>
                        <Array as="points">
                            <mxPoint x="680" y="420"/>
                            <mxPoint x="690" y="470"/>
                            <mxPoint x="760" y="460"/>
                            <mxPoint x="760" y="380"/>
                        </Array>
                    </mxGeometry>
                </mxCell>
                <mxCell id="17" value="4" style="ellipse;whiteSpace=wrap;html=1;aspect=fixed;fontSize=24;" vertex="1" parent="1">
                    <mxGeometry x="657.5" y="257.5" width="65" height="65" as="geometry"/>
                </mxCell>
                <mxCell id="18" value="50" style="text;html=1;align=center;verticalAlign=middle;resizable=0;points=[];autosize=1;strokeColor=none;fillColor=none;fontSize=24;" vertex="1" parent="1">
                    <mxGeometry x="337.5" y="130" width="50" height="40" as="geometry"/>
                </mxCell>
                <mxCell id="19" value="25" style="text;html=1;align=center;verticalAlign=middle;resizable=0;points=[];autosize=1;strokeColor=none;fillColor=none;fontSize=24;" vertex="1" parent="1">
                    <mxGeometry x="105" y="290" width="50" height="40" as="geometry"/>
                </mxCell>
                <mxCell id="20" value="25" style="text;html=1;align=center;verticalAlign=middle;resizable=0;points=[];autosize=1;strokeColor=none;fillColor=none;fontSize=24;" vertex="1" parent="1">
                    <mxGeometry x="260" y="290" width="50" height="40" as="geometry"/>
                </mxCell>
                <mxCell id="21" value="25" style="text;html=1;align=center;verticalAlign=middle;resizable=0;points=[];autosize=1;strokeColor=none;fillColor=none;fontSize=24;" vertex="1" parent="1">
                    <mxGeometry x="420" y="290" width="50" height="40" as="geometry"/>
                </mxCell>
                <mxCell id="22" value="25" style="text;html=1;align=center;verticalAlign=middle;resizable=0;points=[];autosize=1;strokeColor=none;fillColor=none;fontSize=24;" vertex="1" parent="1">
                    <mxGeometry x="590" y="290" width="50" height="40" as="geometry"/>
                </mxCell>
                <mxCell id="28" value="" style="endArrow=classic;html=1;exitX=0.25;exitY=0;exitDx=0;exitDy=0;exitPerimeter=0;entryX=1;entryY=0;entryDx=0;entryDy=0;" edge="1" parent="1" source="7" target="7">
                    <mxGeometry width="50" height="50" relative="1" as="geometry">
                        <mxPoint x="810" y="150" as="sourcePoint"/>
                        <mxPoint x="760" y="220" as="targetPoint"/>
                        <Array as="points">
                            <mxPoint x="650" y="120"/>
                            <mxPoint x="670" y="80"/>
                            <mxPoint x="700" y="90"/>
                            <mxPoint x="730" y="140"/>
                        </Array>
                    </mxGeometry>
                </mxCell>
                <mxCell id="30" value="25" style="text;html=1;align=center;verticalAlign=middle;resizable=0;points=[];autosize=1;strokeColor=none;fillColor=none;fontSize=24;" vertex="1" parent="1">
                    <mxGeometry x="650" y="50" width="50" height="40" as="geometry"/>
                </mxCell>
                <mxCell id="31" value="50" style="edgeLabel;html=1;align=center;verticalAlign=middle;resizable=0;points=[];fontSize=24;" vertex="1" connectable="0" parent="1">
                    <mxGeometry x="639.997251331153" y="459.99527030595715" as="geometry">
                        <mxPoint x="72" y="32" as="offset"/>
                    </mxGeometry>
                </mxCell>
            </root>
        </mxGraphModel>
    </diagram>
</mxfile>